<svg xmlns="http://www.w3.org/2000/svg" xmlns:xlink="http://www.w3.org/1999/xlink" width="186" zoomAndPan="magnify" viewBox="0 0 139.5 113.999999" height="152" preserveAspectRatio="xMidYMid meet" version="1.0"><defs><clipPath id="60e6eafd3d"><path d="M 27.226562 32.675781 L 111.671875 32.675781 L 111.671875 113.386719 L 27.226562 113.386719 Z M 27.226562 32.675781 " clip-rule="nonzero"/></clipPath><clipPath id="51bcbb98fe"><path d="M 15 8 L 34 8 L 34 29 L 15 29 Z M 15 8 " clip-rule="nonzero"/></clipPath><clipPath id="f93cf20b63"><path d="M 0 26.804688 L 22.824219 0.105469 L 46.113281 20.019531 L 23.289062 46.714844 Z M 0 26.804688 " clip-rule="nonzero"/></clipPath><clipPath id="e39db82e9a"><path d="M 0 26.804688 L 22.824219 0.105469 L 46.113281 20.019531 L 23.289062 46.714844 Z M 0 26.804688 " clip-rule="nonzero"/></clipPath><clipPath id="701d3ea10d"><path d="M 33 12 L 39 12 L 39 25 L 33 25 Z M 33 12 " clip-rule="nonzero"/></clipPath><clipPath id="b1462c2eff"><path d="M 0 26.804688 L 22.824219 0.105469 L 46.113281 20.019531 L 23.289062 46.714844 Z M 0 26.804688 " clip-rule="nonzero"/></clipPath><clipPath id="61aead437f"><path d="M 0 26.804688 L 22.824219 0.105469 L 46.113281 20.019531 L 23.289062 46.714844 Z M 0 26.804688 " clip-rule="nonzero"/></clipPath><clipPath id="a700c009eb"><path d="M 13 34 L 26 34 L 26 40 L 13 40 Z M 13 34 " clip-rule="nonzero"/></clipPath><clipPath id="27fddd5945"><path d="M 0 26.804688 L 22.824219 0.105469 L 46.113281 20.019531 L 23.289062 46.714844 Z M 0 26.804688 " clip-rule="nonzero"/></clipPath><clipPath id="4eafcbdc70"><path d="M 0 26.804688 L 22.824219 0.105469 L 46.113281 20.019531 L 23.289062 46.714844 Z M 0 26.804688 " clip-rule="nonzero"/></clipPath><clipPath id="ca4d295c63"><path d="M 41 17 L 44 17 L 44 23 L 41 23 Z M 41 17 " clip-rule="nonzero"/></clipPath><clipPath id="1fe2e57963"><path d="M 0 26.804688 L 22.824219 0.105469 L 46.113281 20.019531 L 23.289062 46.714844 Z M 0 26.804688 " clip-rule="nonzero"/></clipPath><clipPath id="bfce00f4fb"><path d="M 0 26.804688 L 22.824219 0.105469 L 46.113281 20.019531 L 23.289062 46.714844 Z M 0 26.804688 " clip-rule="nonzero"/></clipPath><clipPath id="5e6cf3ef9d"><path d="M 20 42 L 25 42 L 25 45 L 20 45 Z M 20 42 " clip-rule="nonzero"/></clipPath><clipPath id="e8afc30f14"><path d="M 0 26.804688 L 22.824219 0.105469 L 46.113281 20.019531 L 23.289062 46.714844 Z M 0 26.804688 " clip-rule="nonzero"/></clipPath><clipPath id="fd83f5ea78"><path d="M 0 26.804688 L 22.824219 0.105469 L 46.113281 20.019531 L 23.289062 46.714844 Z M 0 26.804688 " clip-rule="nonzero"/></clipPath><clipPath id="7d06909389"><path d="M 12 21 L 28 21 L 28 33 L 12 33 Z M 12 21 " clip-rule="nonzero"/></clipPath><clipPath id="54c5a06236"><path d="M 0 26.804688 L 22.824219 0.105469 L 46.113281 20.019531 L 23.289062 46.714844 Z M 0 26.804688 " clip-rule="nonzero"/></clipPath><clipPath id="38bef299e2"><path d="M 0 26.804688 L 22.824219 0.105469 L 46.113281 20.019531 L 23.289062 46.714844 Z M 0 26.804688 " clip-rule="nonzero"/></clipPath><clipPath id="f727673679"><path d="M 119 42 L 137 42 L 137 47 L 119 47 Z M 119 42 " clip-rule="nonzero"/></clipPath><clipPath id="0223416bf5"><path d="M 131.140625 27.792969 L 138.539062 49.75 L 119.417969 56.191406 L 112.019531 34.238281 Z M 131.140625 27.792969 " clip-rule="nonzero"/></clipPath><clipPath id="f67fcce9ec"><path d="M 131.140625 27.792969 L 138.539062 49.75 L 119.417969 56.191406 L 112.019531 34.238281 Z M 131.140625 27.792969 " clip-rule="nonzero"/></clipPath><clipPath id="22f4a7ae16"><path d="M 119 50 L 128 50 L 128 53 L 119 53 Z M 119 50 " clip-rule="nonzero"/></clipPath><clipPath id="1c99236e20"><path d="M 131.140625 27.792969 L 138.539062 49.75 L 119.417969 56.191406 L 112.019531 34.238281 Z M 131.140625 27.792969 " clip-rule="nonzero"/></clipPath><clipPath id="b8b9318b9e"><path d="M 131.140625 27.792969 L 138.539062 49.75 L 119.417969 56.191406 L 112.019531 34.238281 Z M 131.140625 27.792969 " clip-rule="nonzero"/></clipPath><clipPath id="538b5a6936"><path d="M 115 32 L 123 32 L 123 39 L 115 39 Z M 115 32 " clip-rule="nonzero"/></clipPath><clipPath id="fd43fb4220"><path d="M 131.140625 27.792969 L 138.539062 49.75 L 119.417969 56.191406 L 112.019531 34.238281 Z M 131.140625 27.792969 " clip-rule="nonzero"/></clipPath><clipPath id="a41d7351c1"><path d="M 131.140625 27.792969 L 138.539062 49.75 L 119.417969 56.191406 L 112.019531 34.238281 Z M 131.140625 27.792969 " clip-rule="nonzero"/></clipPath><clipPath id="095ca5fdf3"><path d="M 119 53 L 122 53 L 122 56 L 119 56 Z M 119 53 " clip-rule="nonzero"/></clipPath><clipPath id="636352149a"><path d="M 131.140625 27.792969 L 138.539062 49.75 L 119.417969 56.191406 L 112.019531 34.238281 Z M 131.140625 27.792969 " clip-rule="nonzero"/></clipPath><clipPath id="6dd88e1313"><path d="M 131.140625 27.792969 L 138.539062 49.75 L 119.417969 56.191406 L 112.019531 34.238281 Z M 131.140625 27.792969 " clip-rule="nonzero"/></clipPath><clipPath id="69f98ca790"><path d="M 112 33 L 116 33 L 116 37 L 112 37 Z M 112 33 " clip-rule="nonzero"/></clipPath><clipPath id="8f46ef6bb3"><path d="M 131.140625 27.792969 L 138.539062 49.75 L 119.417969 56.191406 L 112.019531 34.238281 Z M 131.140625 27.792969 " clip-rule="nonzero"/></clipPath><clipPath id="bf88144a21"><path d="M 131.140625 27.792969 L 138.539062 49.75 L 119.417969 56.191406 L 112.019531 34.238281 Z M 131.140625 27.792969 " clip-rule="nonzero"/></clipPath><clipPath id="65844f3109"><path d="M 118 36 L 130 36 L 130 43 L 118 43 Z M 118 36 " clip-rule="nonzero"/></clipPath><clipPath id="a50a2b537f"><path d="M 131.140625 27.792969 L 138.539062 49.75 L 119.417969 56.191406 L 112.019531 34.238281 Z M 131.140625 27.792969 " clip-rule="nonzero"/></clipPath><clipPath id="e1f45c6436"><path d="M 131.140625 27.792969 L 138.539062 49.75 L 119.417969 56.191406 L 112.019531 34.238281 Z M 131.140625 27.792969 " clip-rule="nonzero"/></clipPath></defs><g clip-path="url(#60e6eafd3d)"><path fill="#ffffff" d="M 105.398438 41.753906 L 99.214844 41.753906 C 98.339844 41.242188 97.402344 40.910156 96.402344 40.753906 L 92.324219 40.144531 L 92.324219 38.214844 C 92.324219 37.707031 92.226562 37.222656 92.03125 36.753906 C 91.839844 36.285156 91.5625 35.875 91.203125 35.515625 C 90.847656 35.15625 90.433594 34.882812 89.964844 34.6875 C 89.5 34.492188 89.011719 34.398438 88.503906 34.398438 L 83.671875 34.398438 C 83.164062 34.398438 82.679688 34.492188 82.210938 34.6875 C 81.742188 34.882812 81.332031 35.15625 80.972656 35.515625 C 80.613281 35.875 80.339844 36.285156 80.144531 36.753906 C 79.953125 37.222656 79.855469 37.707031 79.855469 38.214844 L 45.09375 33.078125 C 44.582031 33 44.070312 32.96875 43.554688 32.992188 C 43.039062 33.015625 42.53125 33.089844 42.03125 33.214844 C 41.53125 33.335938 41.046875 33.507812 40.578125 33.726562 C 40.109375 33.945312 39.667969 34.207031 39.253906 34.515625 C 38.839844 34.820312 38.457031 35.164062 38.109375 35.546875 C 37.761719 35.925781 37.457031 36.339844 37.191406 36.78125 C 36.921875 37.222656 36.703125 37.6875 36.527344 38.171875 C 36.355469 38.65625 36.230469 39.15625 36.152344 39.664062 L 27.894531 94.675781 C 27.816406 95.183594 27.792969 95.699219 27.816406 96.214844 C 27.839844 96.730469 27.914062 97.242188 28.039062 97.742188 C 28.164062 98.242188 28.335938 98.726562 28.554688 99.195312 C 28.777344 99.664062 29.039062 100.105469 29.34375 100.523438 C 29.652344 100.9375 29.996094 101.320312 30.375 101.667969 C 30.757812 102.019531 31.171875 102.328125 31.613281 102.59375 C 32.054688 102.863281 32.519531 103.085938 33.003906 103.261719 C 33.488281 103.4375 33.988281 103.566406 34.5 103.644531 L 44.382812 105.09375 L 44.382812 106.546875 C 44.382812 106.980469 44.425781 107.410156 44.511719 107.835938 C 44.597656 108.261719 44.726562 108.675781 44.894531 109.078125 C 45.0625 109.476562 45.265625 109.859375 45.511719 110.21875 C 45.753906 110.578125 46.027344 110.910156 46.335938 111.21875 C 46.648438 111.523438 46.984375 111.796875 47.34375 112.035156 C 47.707031 112.273438 48.089844 112.476562 48.492188 112.636719 C 48.894531 112.800781 49.3125 112.925781 49.738281 113.003906 C 50.164062 113.085938 50.59375 113.125 51.03125 113.121094 L 105.457031 113.121094 C 105.886719 113.117188 106.3125 113.070312 106.734375 112.984375 C 107.15625 112.894531 107.5625 112.765625 107.960938 112.601562 C 108.355469 112.433594 108.730469 112.226562 109.085938 111.988281 C 109.445312 111.746094 109.773438 111.472656 110.074219 111.167969 C 110.378906 110.863281 110.648438 110.53125 110.886719 110.171875 C 111.125 109.8125 111.324219 109.4375 111.488281 109.039062 C 111.652344 108.640625 111.777344 108.230469 111.863281 107.808594 C 111.945312 107.386719 111.988281 106.960938 111.988281 106.53125 L 111.988281 48.375 C 111.988281 47.941406 111.949219 47.511719 111.863281 47.085938 C 111.78125 46.660156 111.65625 46.246094 111.492188 45.847656 C 111.328125 45.445312 111.125 45.0625 110.882812 44.703125 C 110.644531 44.339844 110.371094 44.007812 110.066406 43.699219 C 109.757812 43.394531 109.425781 43.117188 109.066406 42.875 C 108.707031 42.636719 108.324219 42.429688 107.925781 42.265625 C 107.527344 42.097656 107.113281 41.972656 106.6875 41.886719 C 106.261719 41.800781 105.832031 41.757812 105.398438 41.753906 Z M 82.671875 38.214844 C 82.671875 37.9375 82.769531 37.699219 82.964844 37.5 C 83.15625 37.304688 83.394531 37.203125 83.671875 37.199219 L 88.503906 37.199219 C 88.785156 37.203125 89.023438 37.304688 89.21875 37.5 C 89.417969 37.699219 89.515625 37.933594 89.519531 38.214844 L 89.519531 39.664062 L 82.671875 38.648438 Z M 44.382812 48.375 L 44.382812 102.28125 L 34.917969 100.828125 C 34.589844 100.777344 34.265625 100.695312 33.953125 100.582031 C 33.636719 100.46875 33.335938 100.324219 33.050781 100.152344 C 32.765625 99.976562 32.5 99.777344 32.253906 99.550781 C 32.007812 99.324219 31.785156 99.078125 31.585938 98.808594 C 31.390625 98.539062 31.21875 98.253906 31.078125 97.949219 C 30.9375 97.644531 30.828125 97.332031 30.75 97.007812 C 30.671875 96.683594 30.625 96.351562 30.609375 96.019531 C 30.597656 95.683594 30.613281 95.351562 30.667969 95.023438 L 38.925781 40.015625 C 39.132812 38.667969 39.78125 37.582031 40.871094 36.761719 C 41.410156 36.363281 42.003906 36.082031 42.65625 35.925781 C 43.308594 35.765625 43.964844 35.742188 44.628906 35.847656 L 84.121094 41.753906 L 51.03125 41.753906 C 50.59375 41.753906 50.160156 41.792969 49.730469 41.875 C 49.304688 41.957031 48.886719 42.078125 48.484375 42.242188 C 48.078125 42.40625 47.695312 42.609375 47.332031 42.851562 C 46.96875 43.09375 46.632812 43.367188 46.324219 43.675781 C 46.011719 43.984375 45.738281 44.320312 45.496094 44.679688 C 45.253906 45.042969 45.046875 45.425781 44.882812 45.832031 C 44.714844 46.234375 44.589844 46.648438 44.503906 47.078125 C 44.421875 47.503906 44.378906 47.9375 44.382812 48.375 Z M 109.1875 106.53125 C 109.1875 107.035156 109.089844 107.515625 108.894531 107.976562 C 108.703125 108.441406 108.429688 108.847656 108.074219 109.203125 C 107.71875 109.554688 107.308594 109.828125 106.847656 110.019531 C 106.382812 110.210938 105.902344 110.304688 105.398438 110.304688 L 51.03125 110.304688 C 50.527344 110.304688 50.046875 110.210938 49.582031 110.019531 C 49.121094 109.828125 48.710938 109.554688 48.355469 109.203125 C 48 108.847656 47.726562 108.441406 47.535156 107.976562 C 47.339844 107.515625 47.242188 107.035156 47.242188 106.53125 L 47.242188 48.375 C 47.238281 47.871094 47.335938 47.386719 47.527344 46.921875 C 47.71875 46.453125 47.992188 46.042969 48.347656 45.6875 C 48.703125 45.328125 49.113281 45.054688 49.578125 44.859375 C 50.042969 44.667969 50.527344 44.570312 51.03125 44.570312 L 89.519531 44.570312 L 89.519531 54.976562 C 89.519531 55.113281 89.496094 55.242188 89.445312 55.367188 C 89.390625 55.492188 89.320312 55.601562 89.222656 55.695312 C 89.128906 55.792969 89.019531 55.867188 88.894531 55.917969 C 88.769531 55.96875 88.640625 55.996094 88.503906 55.996094 C 88.371094 55.996094 88.242188 55.96875 88.117188 55.917969 C 87.992188 55.867188 87.882812 55.792969 87.785156 55.695312 C 87.691406 55.601562 87.617188 55.492188 87.566406 55.367188 C 87.515625 55.242188 87.488281 55.113281 87.488281 54.976562 L 87.488281 48.039062 C 87.546875 47.824219 87.554688 47.601562 87.511719 47.378906 C 87.46875 47.160156 87.378906 46.957031 87.242188 46.777344 C 87.105469 46.597656 86.933594 46.457031 86.730469 46.359375 C 86.527344 46.257812 86.316406 46.207031 86.089844 46.207031 C 85.863281 46.207031 85.648438 46.257812 85.445312 46.359375 C 85.242188 46.457031 85.074219 46.597656 84.933594 46.777344 C 84.796875 46.957031 84.707031 47.160156 84.664062 47.378906 C 84.621094 47.601562 84.628906 47.824219 84.6875 48.039062 L 84.6875 54.976562 C 84.6875 55.484375 84.785156 55.972656 84.980469 56.4375 C 85.171875 56.90625 85.449219 57.320312 85.804688 57.675781 C 86.164062 58.035156 86.578125 58.3125 87.042969 58.503906 C 87.511719 58.699219 88 58.796875 88.503906 58.796875 C 89.011719 58.796875 89.5 58.699219 89.964844 58.503906 C 90.433594 58.3125 90.847656 58.035156 91.203125 57.675781 C 91.5625 57.320312 91.839844 56.90625 92.03125 56.4375 C 92.226562 55.972656 92.324219 55.484375 92.324219 54.976562 L 92.324219 44.570312 L 105.386719 44.570312 C 105.890625 44.570312 106.375 44.664062 106.84375 44.855469 C 107.308594 45.050781 107.722656 45.324219 108.078125 45.679688 C 108.433594 46.039062 108.710938 46.449219 108.902344 46.917969 C 109.09375 47.382812 109.191406 47.871094 109.1875 48.375 Z M 109.1875 106.53125 " fill-opacity="1" fill-rule="nonzero"/></g><path fill="#ffffff" d="M 98.839844 64.339844 L 60.171875 64.601562 C 59.859375 64.6875 59.601562 64.859375 59.402344 65.121094 C 59.203125 65.378906 59.101562 65.675781 59.101562 66 C 59.101562 66.328125 59.203125 66.621094 59.402344 66.882812 C 59.601562 67.144531 59.859375 67.316406 60.171875 67.402344 L 98.925781 67.15625 C 99.242188 67.070312 99.5 66.898438 99.699219 66.636719 C 99.898438 66.375 99.996094 66.082031 99.996094 65.753906 C 99.996094 65.425781 99.898438 65.132812 99.699219 64.875 C 99.5 64.613281 99.242188 64.441406 98.925781 64.355469 Z M 98.839844 64.339844 " fill-opacity="1" fill-rule="nonzero"/><path fill="#ffffff" d="M 98.839844 78.695312 L 60.171875 78.957031 C 59.859375 79.042969 59.601562 79.214844 59.402344 79.476562 C 59.203125 79.734375 59.101562 80.027344 59.101562 80.355469 C 59.101562 80.683594 59.203125 80.976562 59.402344 81.238281 C 59.601562 81.496094 59.859375 81.671875 60.171875 81.757812 L 98.925781 81.496094 C 99.242188 81.410156 99.5 81.238281 99.699219 80.976562 C 99.898438 80.714844 99.996094 80.421875 99.996094 80.09375 C 99.996094 79.765625 99.898438 79.472656 99.699219 79.214844 C 99.5 78.953125 99.242188 78.78125 98.925781 78.695312 Z M 98.839844 78.695312 " fill-opacity="1" fill-rule="nonzero"/><path fill="#ffffff" d="M 98.839844 93.035156 L 60.171875 93.367188 C 59.980469 93.367188 59.796875 93.40625 59.617188 93.480469 C 59.441406 93.550781 59.285156 93.65625 59.148438 93.792969 C 59.011719 93.929688 58.90625 94.085938 58.832031 94.265625 C 58.757812 94.441406 58.722656 94.628906 58.722656 94.820312 C 58.722656 95.011719 58.757812 95.195312 58.832031 95.375 C 58.90625 95.554688 59.011719 95.710938 59.148438 95.847656 C 59.285156 95.980469 59.441406 96.085938 59.617188 96.160156 C 59.796875 96.234375 59.980469 96.269531 60.171875 96.269531 L 98.925781 95.835938 C 99.144531 95.894531 99.363281 95.902344 99.585938 95.859375 C 99.808594 95.816406 100.007812 95.726562 100.1875 95.589844 C 100.367188 95.449219 100.507812 95.28125 100.609375 95.078125 C 100.707031 94.875 100.757812 94.660156 100.757812 94.433594 C 100.757812 94.207031 100.707031 93.996094 100.609375 93.792969 C 100.507812 93.589844 100.367188 93.417969 100.1875 93.28125 C 100.007812 93.144531 99.808594 93.054688 99.585938 93.011719 C 99.363281 92.96875 99.144531 92.976562 98.925781 93.035156 Z M 98.839844 93.035156 " fill-opacity="1" fill-rule="nonzero"/><g clip-path="url(#51bcbb98fe)"><g clip-path="url(#f93cf20b63)"><g clip-path="url(#e39db82e9a)"><path fill="#ffffff" d="M 19.84375 12.136719 C 24.71875 16.632812 25.1875 17.363281 29.660156 22.246094 C 30.84375 23.550781 31.988281 24.855469 33.136719 26.203125 C 33.632812 26.773438 33.605469 27.1875 33.09375 27.699219 C 32.601562 28.191406 32.273438 28.238281 31.675781 27.65625 C 29.605469 25.59375 27.460938 23.578125 25.484375 21.410156 C 21.058594 16.605469 20.578125 16.011719 16.226562 11.160156 C 16.007812 10.902344 15.769531 10.625 15.554688 10.367188 C 15.207031 9.960938 14.78125 9.5625 15.328125 9.007812 C 15.878906 8.492188 16.289062 8.953125 16.648438 9.257812 C 17.550781 9.996094 18.378906 10.777344 19.246094 11.554688 C 19.4375 11.753906 19.632812 11.957031 19.84375 12.136719 Z M 19.84375 12.136719 " fill-opacity="1" fill-rule="nonzero"/></g></g></g><g clip-path="url(#701d3ea10d)"><g clip-path="url(#b1462c2eff)"><g clip-path="url(#61aead437f)"><path fill="#ffffff" d="M 38.253906 23.757812 C 37.660156 24.453125 37.289062 24.460938 36.953125 23.703125 C 35.738281 20.984375 34.542969 18.285156 33.402344 15.523438 C 33.0625 14.722656 32.855469 13.8125 33.582031 13.050781 C 34.074219 12.519531 34.347656 12.5 34.671875 13.140625 C 35.710938 15.34375 36.710938 17.585938 37.691406 19.808594 C 38.023438 20.570312 38.246094 21.378906 38.484375 22.167969 C 38.667969 22.761719 38.671875 23.3125 38.253906 23.757812 Z M 38.253906 23.757812 " fill-opacity="1" fill-rule="nonzero"/></g></g></g><g clip-path="url(#a700c009eb)"><g clip-path="url(#27fddd5945)"><g clip-path="url(#4eafcbdc70)"><path fill="#ffffff" d="M 25.007812 37.96875 C 25.195312 38.859375 24.980469 39.152344 24.183594 38.980469 C 21.277344 38.320312 18.394531 37.640625 15.503906 36.882812 C 14.660156 36.675781 13.824219 36.289062 13.644531 35.257812 C 13.527344 34.539062 13.667969 34.292969 14.367188 34.457031 C 16.746094 34.957031 19.128906 35.5 21.515625 36.078125 C 22.335938 36.230469 23.105469 36.527344 23.875 36.820312 C 24.460938 37.03125 24.902344 37.367188 25.007812 37.96875 Z M 25.007812 37.96875 " fill-opacity="1" fill-rule="nonzero"/></g></g></g><g clip-path="url(#ca4d295c63)"><g clip-path="url(#1fe2e57963)"><g clip-path="url(#bfce00f4fb)"><path fill="#ffffff" d="M 42.101562 22.375 C 41.984375 22.382812 41.839844 22.296875 41.847656 22.160156 C 41.734375 21.222656 41.628906 20.367188 41.578125 19.484375 C 41.523438 18.78125 42.242188 17.898438 42.941406 17.765625 C 43.113281 17.734375 43.527344 17.976562 43.535156 18.09375 C 43.542969 19.195312 43.589844 20.292969 43.398438 21.367188 C 43.304688 21.945312 42.804688 22.320312 42.101562 22.375 Z M 42.101562 22.375 " fill-opacity="1" fill-rule="nonzero"/></g></g></g><g clip-path="url(#5e6cf3ef9d)"><g clip-path="url(#e8afc30f14)"><g clip-path="url(#fd83f5ea78)"><path fill="#ffffff" d="M 24.644531 44.410156 C 24.65625 44.527344 24.546875 44.652344 24.429688 44.664062 C 23.507812 44.714844 22.609375 44.785156 21.765625 44.792969 C 21.058594 44.808594 20.210938 44.050781 20.117188 43.347656 C 20.101562 43.152344 20.347656 42.78125 20.464844 42.769531 C 21.550781 42.824219 22.675781 42.832031 23.734375 43.085938 C 24.273438 43.179688 24.628906 43.703125 24.644531 44.410156 Z M 24.644531 44.410156 " fill-opacity="1" fill-rule="nonzero"/></g></g></g><g clip-path="url(#7d06909389)"><g clip-path="url(#54c5a06236)"><g clip-path="url(#38bef299e2)"><path fill="#ffffff" d="M 27.136719 30.488281 C 23.46875 27.863281 22.273438 26.875 18.570312 24.292969 C 17.175781 23.320312 15.675781 22.511719 14.210938 21.625 C 13.222656 21.03125 12.273438 22.523438 13.160156 23.28125 C 14.234375 24.199219 15.367188 25.09375 16.496094 25.949219 C 19.425781 28.199219 19.960938 28.765625 23.050781 30.789062 C 23.171875 30.855469 23.300781 30.964844 23.488281 31.085938 C 24.929688 31.957031 26.40625 32.707031 27.035156 32.441406 C 27.089844 32.417969 27.109375 32.398438 27.167969 32.375 C 28.003906 31.738281 28.011719 31.128906 27.136719 30.488281 Z M 27.136719 30.488281 " fill-opacity="1" fill-rule="nonzero"/></g></g></g><g clip-path="url(#f727673679)"><g clip-path="url(#0223416bf5)"><g clip-path="url(#f67fcce9ec)"><path fill="#ffffff" d="M 132.753906 44.171875 C 128.511719 45.425781 127.933594 45.445312 123.609375 46.335938 C 122.457031 46.570312 121.316406 46.777344 120.152344 46.976562 C 119.65625 47.0625 119.429688 46.90625 119.308594 46.4375 C 119.199219 45.988281 119.285156 45.785156 119.820312 45.640625 C 121.710938 45.164062 123.597656 44.625 125.515625 44.230469 C 129.78125 43.339844 130.285156 43.269531 134.550781 42.4375 C 134.773438 42.398438 135.011719 42.359375 135.234375 42.324219 C 135.585938 42.261719 135.960938 42.15625 136.089844 42.660156 C 136.195312 43.148438 135.792969 43.226562 135.496094 43.328125 C 134.765625 43.59375 134.035156 43.800781 133.292969 44.03125 C 133.113281 44.074219 132.929688 44.113281 132.753906 44.171875 Z M 132.753906 44.171875 " fill-opacity="1" fill-rule="nonzero"/></g></g></g><g clip-path="url(#22f4a7ae16)"><g clip-path="url(#1c99236e20)"><g clip-path="url(#b8b9318b9e)"><path fill="#ffffff" d="M 119.804688 50.742188 C 119.609375 50.164062 119.730469 49.949219 120.28125 50.015625 C 122.253906 50.25 124.207031 50.488281 126.179688 50.78125 C 126.753906 50.859375 127.34375 51.050781 127.535156 51.730469 C 127.667969 52.191406 127.589844 52.355469 127.109375 52.320312 C 125.492188 52.164062 123.867188 51.96875 122.257812 51.769531 C 121.707031 51.703125 121.167969 51.550781 120.636719 51.417969 C 120.234375 51.320312 119.914062 51.132812 119.804688 50.742188 Z M 119.804688 50.742188 " fill-opacity="1" fill-rule="nonzero"/></g></g></g><g clip-path="url(#538b5a6936)"><g clip-path="url(#fd43fb4220)"><g clip-path="url(#a41d7351c1)"><path fill="#ffffff" d="M 116.195312 38.296875 C 115.621094 38.097656 115.527344 37.878906 115.898438 37.476562 C 117.269531 36.039062 118.644531 34.621094 120.066406 33.222656 C 120.476562 32.8125 120.984375 32.464844 121.632812 32.714844 C 122.085938 32.894531 122.179688 33.058594 121.847656 33.40625 C 120.746094 34.597656 119.621094 35.777344 118.472656 36.941406 C 118.105469 37.359375 117.671875 37.699219 117.242188 38.042969 C 116.921875 38.304688 116.574219 38.441406 116.195312 38.296875 Z M 116.195312 38.296875 " fill-opacity="1" fill-rule="nonzero"/></g></g></g><g clip-path="url(#095ca5fdf3)"><g clip-path="url(#636352149a)"><g clip-path="url(#6dd88e1313)"><path fill="#ffffff" d="M 119.28125 53.417969 C 119.316406 53.347656 119.414062 53.292969 119.492188 53.347656 C 120.0625 53.601562 120.589844 53.835938 121.113281 54.109375 C 121.535156 54.316406 121.792969 55.03125 121.632812 55.472656 C 121.589844 55.585938 121.3125 55.738281 121.242188 55.703125 C 120.609375 55.332031 119.964844 54.984375 119.414062 54.503906 C 119.113281 54.253906 119.070312 53.839844 119.28125 53.417969 Z M 119.28125 53.417969 " fill-opacity="1" fill-rule="nonzero"/></g></g></g><g clip-path="url(#69f98ca790)"><g clip-path="url(#8f46ef6bb3)"><g clip-path="url(#bf88144a21)"><path fill="#ffffff" d="M 112.632812 35.886719 C 112.5625 35.851562 112.523438 35.746094 112.558594 35.675781 C 112.84375 35.132812 113.113281 34.59375 113.398438 34.105469 C 113.628906 33.695312 114.355469 33.472656 114.789062 33.65625 C 114.90625 33.714844 115.035156 33.984375 115 34.054688 C 114.597656 34.65625 114.207031 35.296875 113.699219 35.816406 C 113.460938 36.09375 113.042969 36.117188 112.632812 35.886719 Z M 112.632812 35.886719 " fill-opacity="1" fill-rule="nonzero"/></g></g></g><g clip-path="url(#65844f3109)"><g clip-path="url(#a50a2b537f)"><g clip-path="url(#e1f45c6436)"><path fill="#ffffff" d="M 119.75 42.074219 C 122.507812 40.871094 123.484375 40.523438 126.230469 39.285156 C 127.261719 38.820312 128.238281 38.238281 129.25 37.703125 C 129.925781 37.339844 129.394531 36.289062 128.660156 36.535156 C 127.765625 36.835938 126.867188 37.179688 125.988281 37.53125 C 123.699219 38.441406 123.191406 38.554688 120.976562 39.632812 C 120.894531 39.679688 120.792969 39.714844 120.65625 39.777344 C 119.664062 40.308594 118.730469 40.894531 118.667969 41.347656 C 118.660156 41.386719 118.667969 41.40625 118.660156 41.445312 C 118.738281 42.140625 119.085938 42.359375 119.75 42.074219 Z M 119.75 42.074219 " fill-opacity="1" fill-rule="nonzero"/></g></g></g></svg>